<?xml version="1.0" encoding="utf-8"?>
<!-- Generator: Adobe Illustrator 14.0.0, SVG Export Plug-In . SVG Version: 6.00 Build 43363)  -->
<!DOCTYPE svg PUBLIC "-//W3C//DTD SVG 1.1//EN" "http://www.w3.org/Graphics/SVG/1.1/DTD/svg11.dtd">
<svg version="1.1" id="Layer_1" xmlns="http://www.w3.org/2000/svg" xmlns:xlink="http://www.w3.org/1999/xlink" x="0px" y="0px"
	 width="687.021px" height="226.771px" viewBox="23.148 0 687.021 226.771" enable-background="new 23.148 0 687.021 226.771"
	 xml:space="preserve">
<g>
	<path d="M378.844,92.644c-7.971,8.704-17.496,12.936-29.123,12.936c-5.299,0-10.232-0.84-14.754-2.471
		c-2.549-15.509-11.52-28.88-24.089-37.277c0.22-6.758,1.858-12.898,4.921-18.256c3.275-5.734,7.9-10.279,13.742-13.508
		c5.891-3.254,12.68-4.904,20.18-4.904c11.635,0,21.166,4.181,29.139,12.782l2.396,2.585l19.248-18.104l-2.182-2.537
		c-5.871-6.827-13.15-12.106-21.639-15.693c-8.422-3.558-17.836-5.362-27.98-5.362c-12.516,0-24.002,2.795-34.141,8.31
		c-10.178,5.534-18.297,13.296-24.136,23.065c-4.067,6.808-6.733,14.285-7.981,22.326c-0.805-0.035-1.61-0.062-2.424-0.062
		c-14.047,0-27.433,5.397-37.58,14.662l-7.953-9.863l53.3-56.743h-34.331l-53.676,55.692V4.53h-29.041v65.221
		c-9.84,4.635-18.139,12.006-23.926,21.126L107.837,4.53H81.611L25.054,130.212H55.5l11.698-27.467h54.728l11.868,27.467h4.888
		c4.296,27.172,27.875,48.018,56.235,48.018c2.193,0,4.42-0.134,6.649-0.397c7.347,26.904,32.232,46.105,60.39,46.105
		c34.517,0,62.599-28.082,62.599-62.6c0-4.656-0.514-9.291-1.529-13.802c4.25-5.162,7.494-11.009,9.643-17.24
		c5.072,1.071,10.369,1.611,15.865,1.611c10.141,0,19.58-1.803,28.059-5.359c8.549-3.588,15.859-8.869,21.729-15.695l2.168-2.522
		L381.254,90.01L378.844,92.644z M77.651,78.452l16.917-39.516l17.046,39.516H77.651z"/>
	<g>
		<g>
			<path fill="#F8ECE1" d="M326.475,98.758c-2.638-9.12-7.889-17.135-14.892-23.183c0.786,4.173,2.19,8.054,4.214,11.591
				C318.475,91.852,322.067,95.729,326.475,98.758z"/>
			<path fill="#F8ECE1" d="M314.393,123.598c-10.184-5.538-18.277-13.304-24.06-23.079c-5.78-9.769-8.71-20.92-8.71-33.148
				c0-1.184,0.035-2.354,0.092-3.519c-0.563-0.021-1.125-0.043-1.693-0.043c-12.738,0-24.334,4.957-32.979,13.035l22.344,27.716
				c22.192,2.891,40.42,18.542,47.09,39.327c3.93-4.511,7.03-9.758,9.086-15.497C321.684,127.128,317.954,125.534,314.393,123.598z"
				/>
		</g>
		<g>
			<path fill="#BE1E2D" d="M271.25,106.87l18.818,23.342h-34.715l-16.188-19.201c-19.131,8.698-32.476,27.978-32.476,50.327
				c0,30.474,24.792,55.265,55.266,55.265s55.264-24.791,55.264-55.265C317.22,134.033,297.311,111.303,271.25,106.87z"/>
		</g>
		<g>
			<path fill="#F3B81E" d="M237.843,109.441l-22.928-27.197l-15.134,15.542v32.426h-29.041V77.996
				c-8.667,4.859-15.729,12.241-20.192,21.149l14.023,31.066h-18.439c4.217,23.106,24.479,40.683,48.786,40.683
				c3.573,0,7.058-0.39,10.42-1.11c-0.412-2.759-0.646-5.574-0.646-8.445C204.691,138.377,218.29,118.56,237.843,109.441z"/>
		</g>
	</g>
	<g>
		<path fill="#00A14B" d="M126.526,95.745l11.868,27.467h15.338L103.316,11.53H86.137L35.88,123.212h14.993l11.698-27.467H126.526z
			 M94.544,21.207l27.714,64.246H67.041L94.544,21.207z"/>
		<polygon fill="#00A14B" points="258.608,123.212 275.434,123.212 225.215,60.923 271.61,11.53 256.434,11.53 192.782,77.573 
			192.782,11.53 177.741,11.53 177.741,123.212 192.782,123.212 192.782,94.941 215.289,71.826 		"/>
		<path fill="#00A14B" d="M381.512,99.922c-8.793,8.402-19.473,12.657-31.791,12.657c-8.699,0-16.627-1.944-23.564-5.777
			c-6.986-3.86-12.516-9.299-16.437-16.162c-3.905-6.83-5.887-14.659-5.887-23.269c0-8.605,1.981-16.435,5.887-23.269
			c3.923-6.865,9.452-12.304,16.435-16.162c6.938-3.833,14.865-5.777,23.564-5.777c12.316,0,22.994,4.208,31.791,12.518l9.24-8.689
			c-4.73-4.821-10.365-8.63-16.793-11.345c-7.555-3.192-16.053-4.812-25.256-4.812c-11.334,0-21.696,2.509-30.795,7.458
			c-9.063,4.928-16.287,11.828-21.473,20.507c-5.184,8.676-7.812,18.624-7.812,29.57c0,10.956,2.603,20.91,7.735,29.584
			c5.129,8.673,12.321,15.568,21.379,20.494c9.1,4.949,19.461,7.458,30.795,7.458c9.207,0,17.734-1.62,25.35-4.813
			c6.479-2.72,12.145-6.533,16.883-11.357L381.512,99.922z"/>
	</g>
</g>
<g>
	<path d="M426.189,45.824l-4.726,14.312h-6.075l15.526-45.498h7.021l15.526,45.498h-6.278l-4.86-14.312H426.189z M441.175,41.234
		l-4.523-13.096c-1.012-2.971-1.688-5.671-2.362-8.303h-0.135c-0.675,2.632-1.351,5.468-2.295,8.235l-4.456,13.164H441.175z"/>
	<path d="M458.05,36.306c0-3.443-0.067-6.143-0.27-8.843h5.265l0.338,5.4h0.135c1.62-3.037,5.4-6.075,10.801-6.075
		c4.523,0,11.544,2.7,11.544,13.906v19.441h-5.94V41.302c0-5.266-1.958-9.653-7.561-9.653c-3.849,0-6.886,2.768-7.966,6.076
		c-0.271,0.742-0.405,1.755-0.405,2.768v19.644h-5.94V36.306z"/>
	<path d="M521.975,12.207v39.49c0,2.903,0.136,6.211,0.271,8.438h-5.266l-0.27-5.671h-0.203c-1.755,3.646-5.67,6.413-11.003,6.413
		c-7.898,0-14.041-6.683-14.041-16.605c-0.067-10.868,6.75-17.484,14.648-17.484c5.063,0,8.37,2.363,9.855,4.928h0.135V12.207
		H521.975z M516.102,40.761c0-0.742-0.067-1.755-0.27-2.498c-0.878-3.712-4.118-6.817-8.573-6.817c-6.143,0-9.788,5.4-9.788,12.556
		c0,6.615,3.308,12.084,9.653,12.084c3.982,0,7.628-2.701,8.708-7.089c0.202-0.81,0.27-1.62,0.27-2.564V40.761z"/>
	<path d="M530.209,37.656c0-3.848-0.067-7.155-0.27-10.193h5.197l0.271,6.48h0.202c1.485-4.387,5.131-7.155,9.113-7.155
		c0.607,0,1.08,0.068,1.62,0.135v5.603c-0.607-0.135-1.215-0.135-2.025-0.135c-4.186,0-7.155,3.105-7.965,7.561
		c-0.136,0.81-0.203,1.822-0.203,2.768v17.416h-5.94V37.656z"/>
	<path d="M553.228,44.88c0.135,8.033,5.198,11.341,11.206,11.341c4.253,0,6.886-0.743,9.046-1.688l1.08,4.252
		c-2.093,0.945-5.738,2.093-10.936,2.093c-10.059,0-16.066-6.683-16.066-16.538s5.805-17.552,15.323-17.552
		c10.733,0,13.501,9.315,13.501,15.324c0,1.215-0.067,2.093-0.202,2.768H553.228z M570.644,40.627
		c0.068-3.713-1.552-9.586-8.235-9.586c-6.075,0-8.641,5.468-9.113,9.586H570.644z"/>
	<path d="M418.832,74.637h5.872v21.938h0.203c1.215-1.755,2.43-3.375,3.577-4.86l13.906-17.078h7.291l-16.472,19.306l17.754,26.192
		h-6.953l-14.919-22.344l-4.388,4.995v17.349h-5.872V74.637z"/>
	<path d="M483.094,103.529c0,12.084-8.438,17.349-16.269,17.349c-8.775,0-15.661-6.48-15.661-16.809
		c0-10.868,7.223-17.281,16.201-17.281C476.749,86.788,483.094,93.606,483.094,103.529z M457.24,103.867
		c0,7.155,4.051,12.556,9.855,12.556c5.671,0,9.924-5.333,9.924-12.69c0-5.536-2.768-12.488-9.789-12.488
		C460.278,91.244,457.24,97.724,457.24,103.867z"/>
	<path d="M488.898,97.656c0-3.848-0.067-7.155-0.27-10.193h5.197l0.271,6.48h0.202c1.485-4.388,5.131-7.155,9.113-7.155
		c0.607,0,1.08,0.067,1.62,0.136v5.603c-0.607-0.135-1.215-0.135-2.025-0.135c-4.185,0-7.155,3.104-7.966,7.561
		c-0.135,0.81-0.202,1.822-0.202,2.768v17.416h-5.94V97.656z"/>
	<path d="M508.473,114.128c1.822,1.08,4.928,2.295,7.897,2.295c4.253,0,6.278-2.093,6.278-4.86c0-2.835-1.688-4.32-6.008-5.94
		c-5.94-2.16-8.708-5.333-8.708-9.248c0-5.266,4.32-9.586,11.273-9.586c3.308,0,6.21,0.878,7.965,2.025l-1.417,4.32
		c-1.283-0.81-3.646-1.958-6.684-1.958c-3.51,0-5.4,2.025-5.4,4.456c0,2.7,1.891,3.915,6.144,5.603
		c5.603,2.093,8.572,4.928,8.572,9.788c0,5.806-4.522,9.855-12.15,9.855c-3.578,0-6.886-0.944-9.181-2.295L508.473,114.128z"/>
	<path d="M450.558,178.718c-2.093,1.08-6.48,2.16-12.016,2.16c-12.826,0-22.412-8.101-22.412-23.086
		c0-14.312,9.653-23.897,23.762-23.897c5.604,0,9.249,1.216,10.801,2.025l-1.484,4.793c-2.16-1.08-5.333-1.891-9.113-1.891
		c-10.666,0-17.754,6.818-17.754,18.767c0,11.206,6.413,18.294,17.416,18.294c3.646,0,7.291-0.742,9.653-1.89L450.558,178.718z"/>
	<path d="M484.917,163.529c0,12.084-8.438,17.349-16.269,17.349c-8.776,0-15.661-6.48-15.661-16.809
		c0-10.868,7.223-17.281,16.201-17.281C478.572,146.788,484.917,153.606,484.917,163.529z M459.063,163.867
		c0,7.155,4.05,12.556,9.855,12.556c5.671,0,9.924-5.333,9.924-12.69c0-5.536-2.769-12.488-9.788-12.488
		C462.101,151.244,459.063,157.724,459.063,163.867z"/>
	<path d="M490.72,156.306c0-3.443-0.135-6.143-0.27-8.844h5.197l0.271,5.333h0.202c1.822-3.104,4.86-6.008,10.328-6.008
		c4.388,0,7.764,2.7,9.181,6.548h0.136c1.012-1.89,2.362-3.24,3.712-4.252c1.958-1.485,4.051-2.296,7.156-2.296
		c4.388,0,10.801,2.835,10.801,14.177v19.171h-5.806v-18.429c0-6.346-2.363-10.059-7.088-10.059c-3.443,0-6.008,2.498-7.088,5.333
		c-0.271,0.878-0.473,1.891-0.473,2.971v20.184h-5.806v-19.576c0-5.198-2.295-8.911-6.818-8.911c-3.645,0-6.413,2.971-7.357,5.94
		c-0.338,0.811-0.473,1.891-0.473,2.903v19.644h-5.806V156.306z"/>
	<path d="M545.331,158.129c0-4.186-0.135-7.561-0.27-10.666h5.265l0.338,5.604h0.135c2.363-3.982,6.278-6.278,11.611-6.278
		c7.965,0,13.906,6.684,13.906,16.539c0,11.746-7.224,17.551-14.919,17.551c-4.32,0-8.101-1.89-10.059-5.13h-0.135v17.754h-5.873
		V158.129z M551.204,166.837c0,0.878,0.067,1.688,0.271,2.431c1.08,4.117,4.657,6.953,8.91,6.953c6.278,0,9.923-5.131,9.923-12.624
		c0-6.48-3.442-12.083-9.721-12.083c-4.05,0-7.897,2.835-8.978,7.291c-0.203,0.742-0.405,1.619-0.405,2.362V166.837z"/>
	<path d="M585.358,164.88c0.136,8.033,5.198,11.341,11.206,11.341c4.253,0,6.886-0.743,9.046-1.688l1.08,4.252
		c-2.093,0.945-5.738,2.093-10.937,2.093c-10.058,0-16.065-6.683-16.065-16.538s5.806-17.552,15.323-17.552
		c10.733,0,13.501,9.315,13.501,15.324c0,1.215-0.067,2.093-0.202,2.768H585.358z M602.775,160.627
		c0.067-3.713-1.553-9.586-8.236-9.586c-6.075,0-8.641,5.468-9.113,9.586H602.775z"/>
	<path d="M621.336,139.633v7.83h8.506v4.523h-8.506v17.619c0,4.05,1.147,6.345,4.456,6.345c1.62,0,2.564-0.135,3.442-0.405
		l0.271,4.523c-1.148,0.405-2.971,0.81-5.266,0.81c-2.768,0-4.996-0.944-6.413-2.497c-1.62-1.823-2.295-4.726-2.295-8.573v-17.821
		h-5.063v-4.523h5.063v-6.075L621.336,139.633z"/>
	<path d="M641.452,138.283c0,2.024-1.417,3.645-3.78,3.645c-2.16,0-3.577-1.62-3.577-3.645c0-2.025,1.485-3.713,3.713-3.713
		C639.967,134.57,641.452,136.19,641.452,138.283z M634.836,180.135v-32.673h5.94v32.673H634.836z"/>
	<path d="M656.099,139.633v7.83h8.506v4.523h-8.506v17.619c0,4.05,1.148,6.345,4.456,6.345c1.62,0,2.564-0.135,3.442-0.405
		l0.27,4.523c-1.147,0.405-2.97,0.81-5.265,0.81c-2.768,0-4.995-0.944-6.413-2.497c-1.62-1.823-2.295-4.726-2.295-8.573v-17.821
		h-5.063v-4.523h5.063v-6.075L656.099,139.633z"/>
	<path d="M676.214,138.283c0,2.024-1.417,3.645-3.78,3.645c-2.16,0-3.577-1.62-3.577-3.645c0-2.025,1.484-3.713,3.713-3.713
		C674.73,134.57,676.214,136.19,676.214,138.283z M669.599,180.135v-32.673h5.94v32.673H669.599z"/>
	<path d="M687.014,164.88c0.136,8.033,5.198,11.341,11.206,11.341c4.253,0,6.886-0.743,9.046-1.688l1.08,4.252
		c-2.093,0.945-5.738,2.093-10.937,2.093c-10.058,0-16.065-6.683-16.065-16.538s5.806-17.552,15.323-17.552
		c10.733,0,13.501,9.315,13.501,15.324c0,1.215-0.067,2.093-0.202,2.768H687.014z M704.431,160.627
		c0.067-3.713-1.553-9.586-8.236-9.586c-6.075,0-8.641,5.468-9.113,9.586H704.431z"/>
</g>
</svg>
