<?xml version="1.0" encoding="utf-8"?>
<!-- Generator: Adobe Illustrator 14.0.0, SVG Export Plug-In . SVG Version: 6.00 Build 43363)  -->
<!DOCTYPE svg PUBLIC "-//W3C//DTD SVG 1.1//EN" "http://www.w3.org/Graphics/SVG/1.1/DTD/svg11.dtd">
<svg version="1.1" id="Layer_1" xmlns="http://www.w3.org/2000/svg" xmlns:xlink="http://www.w3.org/1999/xlink" x="0px" y="0px"
	 width="992.126px" height="226.771px" viewBox="23.629 0 992.126 226.771" enable-background="new 23.629 0 992.126 226.771"
	 xml:space="preserve">
<g>
	<path d="M378.844,92.644c-7.971,8.704-17.496,12.936-29.123,12.936c-5.299,0-10.231-0.84-14.754-2.471
		c-2.549-15.509-11.52-28.88-24.089-37.277c0.22-6.758,1.858-12.897,4.921-18.256c3.275-5.734,7.9-10.279,13.742-13.508
		c5.891-3.254,12.68-4.904,20.18-4.904c11.636,0,21.166,4.181,29.14,12.782l2.396,2.585l19.248-18.104l-2.182-2.536
		c-5.871-6.827-13.15-12.106-21.64-15.693c-8.422-3.558-17.836-5.362-27.979-5.362c-12.516,0-24.002,2.795-34.141,8.311
		c-10.179,5.533-18.297,13.296-24.137,23.064c-4.067,6.809-6.733,14.285-7.981,22.326c-0.805-0.035-1.61-0.062-2.424-0.062
		c-14.047,0-27.433,5.396-37.58,14.661l-7.953-9.862l53.3-56.743h-34.331l-53.676,55.692V4.53H170.74v65.221
		c-9.84,4.635-18.139,12.006-23.926,21.126L107.837,4.53H81.611L25.054,130.212H55.5l11.698-27.467h54.728l11.868,27.467h4.888
		c4.296,27.172,27.875,48.019,56.235,48.019c2.193,0,4.42-0.135,6.649-0.397c7.347,26.904,32.232,46.105,60.39,46.105
		c34.517,0,62.599-28.082,62.599-62.601c0-4.655-0.514-9.291-1.528-13.802c4.25-5.162,7.493-11.009,9.643-17.24
		c5.072,1.071,10.369,1.611,15.865,1.611c10.141,0,19.58-1.803,28.059-5.359c8.549-3.588,15.859-8.869,21.729-15.694l2.168-2.522
		L381.254,90.01L378.844,92.644z M77.651,78.452l16.917-39.516l17.046,39.516H77.651z"/>
	<g>
		<g>
			<path fill="#F8ECE1" d="M326.475,98.758c-2.638-9.12-7.889-17.135-14.892-23.183c0.786,4.173,2.19,8.054,4.214,11.591
				C318.475,91.852,322.067,95.729,326.475,98.758z"/>
			<path fill="#F8ECE1" d="M314.393,123.598c-10.184-5.538-18.276-13.305-24.06-23.079c-5.78-9.77-8.71-20.92-8.71-33.148
				c0-1.184,0.035-2.354,0.092-3.519c-0.563-0.021-1.125-0.043-1.693-0.043c-12.738,0-24.334,4.957-32.979,13.034l22.344,27.717
				c22.192,2.891,40.419,18.542,47.089,39.326c3.931-4.511,7.03-9.758,9.086-15.496
				C321.684,127.128,317.954,125.534,314.393,123.598z"/>
		</g>
		<g>
			<path fill="#BE1E2D" d="M271.25,106.87l18.818,23.342h-34.715l-16.188-19.201c-19.131,8.698-32.476,27.979-32.476,50.327
				c0,30.475,24.792,55.266,55.266,55.266c30.474,0,55.264-24.791,55.264-55.266C317.22,134.033,297.311,111.302,271.25,106.87z"/>
		</g>
		<g>
			<path fill="#F3B81E" d="M237.843,109.441l-22.928-27.197l-15.134,15.542v32.426H170.74V77.996
				c-8.667,4.859-15.729,12.241-20.192,21.149l14.023,31.065h-18.439c4.217,23.106,24.479,40.684,48.786,40.684
				c3.573,0,7.058-0.391,10.42-1.11c-0.412-2.759-0.646-5.574-0.646-8.445C204.691,138.377,218.29,118.56,237.843,109.441z"/>
		</g>
	</g>
	<g>
		<path fill="#00A14B" d="M126.526,95.745l11.868,27.467h15.338L103.316,11.53H86.137L35.88,123.212h14.993l11.698-27.467H126.526z
			 M94.544,21.207l27.714,64.246H67.041L94.544,21.207z"/>
		<polygon fill="#00A14B" points="258.608,123.212 275.434,123.212 225.215,60.923 271.61,11.53 256.434,11.53 192.782,77.573 
			192.782,11.53 177.741,11.53 177.741,123.212 192.782,123.212 192.782,94.941 215.289,71.826 		"/>
		<path fill="#00A14B" d="M381.512,99.922c-8.793,8.402-19.473,12.657-31.791,12.657c-8.699,0-16.627-1.944-23.563-5.777
			c-6.986-3.859-12.517-9.299-16.438-16.161c-3.905-6.83-5.887-14.659-5.887-23.27c0-8.604,1.981-16.435,5.887-23.269
			c3.923-6.865,9.452-12.305,16.436-16.162c6.938-3.833,14.864-5.777,23.563-5.777c12.316,0,22.994,4.208,31.791,12.519l9.24-8.689
			c-4.73-4.821-10.365-8.63-16.793-11.345c-7.555-3.192-16.053-4.813-25.256-4.813c-11.334,0-21.696,2.509-30.795,7.458
			c-9.063,4.928-16.287,11.828-21.473,20.507c-5.184,8.677-7.812,18.624-7.812,29.57c0,10.956,2.603,20.91,7.735,29.584
			c5.129,8.673,12.321,15.568,21.379,20.494c9.1,4.949,19.461,7.458,30.795,7.458c9.207,0,17.733-1.62,25.35-4.813
			c6.479-2.72,12.146-6.532,16.883-11.356L381.512,99.922z"/>
	</g>
</g>
<g>
	<path d="M426.189,115.901l-4.727,14.312h-6.075l15.526-45.498h7.021l15.526,45.498h-6.278l-4.859-14.312H426.189z M441.175,111.311
		l-4.522-13.097c-1.013-2.971-1.688-5.671-2.362-8.303h-0.135c-0.675,2.632-1.352,5.468-2.295,8.235l-4.456,13.164H441.175z"/>
	<path d="M458.05,106.384c0-3.442-0.066-6.143-0.27-8.843h5.265l0.338,5.4h0.135c1.62-3.037,5.4-6.075,10.802-6.075
		c4.522,0,11.544,2.7,11.544,13.906v19.44h-5.94v-18.834c0-5.266-1.958-9.652-7.561-9.652c-3.85,0-6.886,2.768-7.966,6.075
		c-0.271,0.742-0.405,1.756-0.405,2.769v19.644h-5.94L458.05,106.384L458.05,106.384z"/>
	<path d="M521.975,82.284v39.49c0,2.902,0.137,6.211,0.271,8.438h-5.266l-0.271-5.671h-0.203c-1.754,3.646-5.67,6.413-11.002,6.413
		c-7.898,0-14.042-6.683-14.042-16.604c-0.066-10.868,6.75-17.484,14.649-17.484c5.063,0,8.369,2.363,9.854,4.928h0.135V82.284
		H521.975z M516.102,110.839c0-0.741-0.066-1.755-0.27-2.498c-0.879-3.712-4.119-6.816-8.574-6.816
		c-6.143,0-9.787,5.399-9.787,12.556c0,6.615,3.309,12.084,9.652,12.084c3.982,0,7.629-2.701,8.709-7.089
		c0.201-0.81,0.27-1.62,0.27-2.564V110.839z"/>
	<path d="M530.209,107.733c0-3.849-0.068-7.155-0.27-10.193h5.195l0.271,6.48h0.203c1.484-4.388,5.131-7.155,9.111-7.155
		c0.607,0,1.08,0.068,1.621,0.135v5.604c-0.607-0.136-1.215-0.136-2.025-0.136c-4.186,0-7.154,3.105-7.965,7.562
		c-0.137,0.81-0.203,1.822-0.203,2.768v17.416h-5.939V107.733z"/>
	<path d="M553.229,114.957c0.135,8.033,5.197,11.341,11.205,11.341c4.254,0,6.887-0.742,9.047-1.688l1.08,4.252
		c-2.094,0.945-5.738,2.093-10.938,2.093c-10.059,0-16.064-6.683-16.064-16.538c0-9.854,5.805-17.552,15.322-17.552
		c10.732,0,13.5,9.315,13.5,15.324c0,1.215-0.066,2.093-0.201,2.768H553.229z M570.645,110.704c0.066-3.713-1.553-9.586-8.236-9.586
		c-6.074,0-8.641,5.468-9.113,9.586H570.645z"/>
	<path d="M594.875,84.715h5.873v21.938h0.203c1.215-1.755,2.43-3.375,3.576-4.86l13.906-17.079h7.291l-16.473,19.307l17.754,26.191
		h-6.953l-14.918-22.344l-4.389,4.995v17.349h-5.871V84.715L594.875,84.715z"/>
	<path d="M659.139,113.606c0,12.084-8.438,17.349-16.27,17.349c-8.775,0-15.66-6.479-15.66-16.809
		c0-10.868,7.223-17.281,16.201-17.281C652.793,96.865,659.139,103.683,659.139,113.606z M633.286,113.944
		c0,7.155,4.051,12.556,9.854,12.556c5.672,0,9.926-5.333,9.926-12.689c0-5.536-2.77-12.489-9.789-12.489
		C636.323,101.321,633.286,107.802,633.286,113.944z"/>
	<path d="M664.944,107.733c0-3.849-0.068-7.155-0.271-10.193h5.197l0.271,6.48h0.201c1.486-4.388,5.131-7.155,9.113-7.155
		c0.607,0,1.08,0.068,1.621,0.135v5.604c-0.607-0.136-1.215-0.136-2.025-0.136c-4.186,0-7.154,3.105-7.967,7.562
		c-0.135,0.81-0.201,1.822-0.201,2.768v17.416h-5.939V107.733L664.944,107.733z"/>
	<path d="M684.518,124.205c1.822,1.08,4.928,2.295,7.896,2.295c4.254,0,6.279-2.093,6.279-4.859c0-2.835-1.689-4.32-6.008-5.94
		c-5.941-2.16-8.709-5.333-8.709-9.248c0-5.266,4.32-9.586,11.273-9.586c3.307,0,6.209,0.878,7.965,2.025l-1.418,4.319
		c-1.283-0.81-3.645-1.958-6.684-1.958c-3.51,0-5.4,2.025-5.4,4.456c0,2.7,1.893,3.915,6.145,5.604
		c5.604,2.093,8.572,4.928,8.572,9.788c0,5.806-4.521,9.854-12.15,9.854c-3.578,0-6.885-0.944-9.182-2.295L684.518,124.205z"/>
	<path d="M754.922,128.795c-2.092,1.08-6.479,2.16-12.016,2.16c-12.826,0-22.412-8.101-22.412-23.086
		c0-14.312,9.654-23.896,23.762-23.896c5.605,0,9.25,1.215,10.803,2.024l-1.484,4.793c-2.16-1.08-5.334-1.89-9.113-1.89
		c-10.666,0-17.754,6.817-17.754,18.766c0,11.206,6.412,18.294,17.416,18.294c3.646,0,7.291-0.742,9.652-1.89L754.922,128.795z"/>
	<path d="M789.282,113.606c0,12.084-8.438,17.349-16.27,17.349c-8.773,0-15.66-6.479-15.66-16.809
		c0-10.868,7.223-17.281,16.201-17.281C782.936,96.865,789.282,103.683,789.282,113.606z M763.426,113.944
		c0,7.155,4.053,12.556,9.855,12.556c5.672,0,9.924-5.333,9.924-12.689c0-5.536-2.768-12.489-9.789-12.489
		C766.465,101.321,763.426,107.802,763.426,113.944z"/>
	<path d="M795.084,106.384c0-3.442-0.135-6.143-0.27-8.843h5.197l0.271,5.333h0.201c1.822-3.104,4.859-6.008,10.328-6.008
		c4.389,0,7.764,2.7,9.182,6.548h0.135c1.014-1.89,2.363-3.24,3.713-4.252c1.957-1.485,4.051-2.295,7.156-2.295
		c4.387,0,10.801,2.835,10.801,14.177v19.171h-5.807v-18.429c0-6.346-2.363-10.059-7.088-10.059c-3.443,0-6.008,2.498-7.088,5.333
		c-0.271,0.878-0.473,1.891-0.473,2.971v20.184h-5.807v-19.575c0-5.198-2.295-8.911-6.818-8.911c-3.645,0-6.412,2.971-7.355,5.939
		c-0.338,0.812-0.475,1.892-0.475,2.903v19.644h-5.805V106.384L795.084,106.384z"/>
	<path d="M849.696,108.206c0-4.186-0.135-7.561-0.271-10.666h5.266l0.338,5.604h0.135c2.363-3.983,6.279-6.278,11.611-6.278
		c7.967,0,13.904,6.684,13.904,16.539c0,11.746-7.223,17.551-14.918,17.551c-4.318,0-8.1-1.89-10.059-5.13h-0.135v17.754h-5.873
		v-35.373H849.696z M855.569,116.914c0,0.878,0.066,1.688,0.27,2.431c1.08,4.117,4.658,6.953,8.91,6.953
		c6.279,0,9.924-5.131,9.924-12.624c0-6.479-3.441-12.083-9.721-12.083c-4.051,0-7.898,2.835-8.979,7.291
		c-0.203,0.742-0.404,1.619-0.404,2.362V116.914L855.569,116.914z"/>
	<path d="M889.723,114.957c0.137,8.033,5.197,11.341,11.205,11.341c4.254,0,6.887-0.742,9.047-1.688l1.08,4.252
		c-2.094,0.945-5.738,2.093-10.938,2.093c-10.057,0-16.064-6.683-16.064-16.538c0-9.854,5.807-17.552,15.322-17.552
		c10.734,0,13.502,9.315,13.502,15.324c0,1.215-0.066,2.093-0.203,2.768H889.723z M907.139,110.704
		c0.068-3.713-1.553-9.586-8.234-9.586c-6.076,0-8.643,5.468-9.113,9.586H907.139z"/>
	<path d="M925.702,89.71v7.831h8.506v4.523h-8.506v17.619c0,4.05,1.146,6.345,4.457,6.345c1.619,0,2.563-0.135,3.441-0.405
		l0.271,4.523c-1.148,0.404-2.971,0.81-5.266,0.81c-2.77,0-4.996-0.944-6.414-2.497c-1.619-1.823-2.295-4.726-2.295-8.573v-17.82
		h-5.063V97.54h5.063v-6.076L925.702,89.71z"/>
	<path d="M945.817,88.36c0,2.024-1.418,3.645-3.781,3.645c-2.16,0-3.576-1.62-3.576-3.645c0-2.025,1.484-3.713,3.713-3.713
		C944.333,84.647,945.817,86.267,945.817,88.36z M939.202,130.213V97.54h5.939v32.672L939.202,130.213L939.202,130.213z"/>
	<path d="M960.463,89.71v7.831h8.506v4.523h-8.506v17.619c0,4.05,1.148,6.345,4.457,6.345c1.619,0,2.564-0.135,3.441-0.405
		l0.27,4.523c-1.146,0.404-2.969,0.81-5.264,0.81c-2.77,0-4.996-0.944-6.414-2.497c-1.619-1.823-2.295-4.726-2.295-8.573v-17.82
		h-5.063V97.54h5.063v-6.076L960.463,89.71z"/>
	<path d="M980.581,88.36c0,2.024-1.418,3.645-3.781,3.645c-2.16,0-3.576-1.62-3.576-3.645c0-2.025,1.484-3.713,3.713-3.713
		C979.094,84.647,980.581,86.267,980.581,88.36z M973.963,130.213V97.54h5.941v32.672L973.963,130.213L973.963,130.213z"/>
	<path d="M991.379,114.957c0.135,8.033,5.197,11.341,11.205,11.341c4.254,0,6.887-0.742,9.047-1.688l1.08,4.252
		c-2.094,0.945-5.738,2.093-10.938,2.093c-10.059,0-16.064-6.683-16.064-16.538c0-9.854,5.807-17.552,15.322-17.552
		c10.732,0,13.502,9.315,13.502,15.324c0,1.215-0.068,2.093-0.203,2.768H991.379z M1008.795,110.704
		c0.068-3.713-1.553-9.586-8.234-9.586c-6.076,0-8.643,5.468-9.113,9.586H1008.795z"/>
</g>
</svg>
