<?xml version="1.0" encoding="utf-8"?>
<!-- Generator: Adobe Illustrator 14.0.0, SVG Export Plug-In . SVG Version: 6.00 Build 43363)  -->
<!DOCTYPE svg PUBLIC "-//W3C//DTD SVG 1.1//EN" "http://www.w3.org/Graphics/SVG/1.1/DTD/svg11.dtd">
<svg version="1.1" id="Layer_1" xmlns="http://www.w3.org/2000/svg" xmlns:xlink="http://www.w3.org/1999/xlink" x="0px" y="0px"
	 width="379.843px" height="226.771px" viewBox="0 0 379.843 226.771" enable-background="new 0 0 379.843 226.771"
	 xml:space="preserve">
<g>
	<path d="M355.986,92.644c-7.97,8.704-17.497,12.936-29.124,12.936c-5.298,0-10.232-0.84-14.754-2.471
		C309.56,87.6,300.589,74.229,288.02,65.832c0.219-6.758,1.858-12.899,4.921-18.256c3.276-5.734,7.9-10.279,13.743-13.508
		c5.889-3.254,12.678-4.904,20.179-4.904c11.634,0,21.165,4.181,29.139,12.782l2.396,2.585l19.248-18.103l-2.182-2.538
		c-5.87-6.827-13.15-12.106-21.638-15.693c-8.423-3.558-17.837-5.362-27.981-5.362c-12.516,0-24.002,2.795-34.14,8.309
		c-10.178,5.535-18.298,13.296-24.136,23.066c-4.067,6.807-6.734,14.285-7.982,22.326c-0.804-0.035-1.61-0.062-2.423-0.062
		c-14.048,0-27.433,5.398-37.58,14.663l-7.953-9.864L264.93,4.53h-34.331l-53.675,55.692V4.53h-29.041v65.221
		c-9.84,4.635-18.139,12.006-23.926,21.126L84.979,4.53H58.753L2.196,130.212h30.446l11.699-27.467h54.727l11.868,27.467h4.888
		c4.296,27.172,27.875,48.017,56.235,48.017c2.194,0,4.42-0.133,6.65-0.397c7.346,26.904,32.232,46.105,60.389,46.105
		c34.517,0,62.599-28.082,62.599-62.599c0-4.657-0.514-9.291-1.529-13.802c4.25-5.162,7.493-11.009,9.642-17.24
		c5.072,1.071,10.369,1.611,15.865,1.611c10.141,0,19.581-1.803,28.058-5.359c8.549-3.588,15.86-8.869,21.73-15.696l2.168-2.522
		l-19.235-18.319L355.986,92.644z M54.793,78.452L71.71,38.936l17.046,39.516H54.793z"/>
	<g>
		<g>
			<path fill="#F8ECE1" d="M303.616,98.758c-2.637-9.12-7.888-17.135-14.891-23.183c0.787,4.173,2.191,8.054,4.214,11.591
				C295.616,91.852,299.208,95.729,303.616,98.758z"/>
			<path fill="#F8ECE1" d="M291.535,123.598c-10.184-5.538-18.278-13.303-24.06-23.079c-5.78-9.768-8.71-20.92-8.71-33.148
				c0-1.184,0.036-2.355,0.092-3.519c-0.563-0.02-1.125-0.043-1.693-0.043c-12.738,0-24.334,4.957-32.979,13.036l22.344,27.715
				c22.192,2.891,40.42,18.542,47.089,39.328c3.93-4.511,7.031-9.758,9.086-15.498C298.825,127.128,295.095,125.534,291.535,123.598
				z"/>
		</g>
		<g>
			<path fill="#BE1E2D" d="M248.392,106.87l18.818,23.342h-34.715l-16.187-19.201c-19.131,8.698-32.475,27.977-32.475,50.327
				c0,30.473,24.792,55.264,55.265,55.264c30.473,0,55.264-24.791,55.264-55.264C294.362,134.033,274.453,111.304,248.392,106.87z"
				/>
		</g>
		<g>
			<path fill="#F3B81E" d="M214.985,109.441l-22.928-27.197l-15.133,15.542v32.426h-29.041V77.996
				c-8.667,4.859-15.73,12.241-20.193,21.149l14.024,31.067h-18.44c4.217,23.106,24.48,40.682,48.786,40.682
				c3.574,0,7.058-0.389,10.42-1.11c-0.412-2.759-0.646-5.574-0.646-8.445C181.833,138.377,195.431,118.56,214.985,109.441z"/>
		</g>
	</g>
	<g>
		<path fill="#00A14B" d="M103.668,95.745l11.868,27.467h15.338L80.458,11.53H63.279L13.022,123.212h14.993l11.699-27.467H103.668z
			 M71.686,21.207l27.714,64.246H44.182L71.686,21.207z"/>
		<polygon fill="#00A14B" points="235.749,123.212 252.575,123.212 202.357,60.923 248.751,11.53 233.575,11.53 169.924,77.573 
			169.924,11.53 154.883,11.53 154.883,123.212 169.924,123.212 169.924,94.941 192.43,71.826 		"/>
		<path fill="#00A14B" d="M358.653,99.922c-8.792,8.402-19.471,12.657-31.791,12.657c-8.699,0-16.627-1.944-23.564-5.777
			c-6.986-3.861-12.516-9.299-16.436-16.163c-3.906-6.83-5.887-14.659-5.887-23.268c0-8.606,1.981-16.435,5.887-23.269
			c3.922-6.865,9.452-12.303,16.435-16.162c6.937-3.833,14.865-5.777,23.564-5.777c12.317,0,22.995,4.208,31.791,12.517l9.24-8.689
			c-4.731-4.821-10.366-8.63-16.792-11.345c-7.556-3.192-16.054-4.811-25.257-4.811c-11.334,0-21.696,2.509-30.795,7.458
			c-9.062,4.928-16.286,11.828-21.472,20.507c-5.184,8.675-7.812,18.624-7.812,29.57c0,10.956,2.603,20.91,7.735,29.584
			c5.129,8.673,12.322,15.568,21.379,20.494c9.1,4.949,19.461,7.458,30.795,7.458c9.207,0,17.735-1.62,25.35-4.813
			c6.479-2.72,12.145-6.534,16.882-11.358L358.653,99.922z"/>
	</g>
</g>
</svg>
